# xmcd
#
# Track frame offsets:
#	150
#	13982
#	26145
#	39384
#	54385
#	67406
#	81067
#	93212
#	105180
#	116022
#	129712
#	143618
#	155569
#	166398
#	179307
#	193567
#	206094
#	218260
#	231569
#	242451
#
# Disc length: 3396 seconds
#
# Revision: 1
# Processed by: cddbd v1.5.2PL0 Copyright (c) Steve Scherf et al.
# Submitted via: audiograbber 1.83.01
#
DISCID=120d4214
DTITLE=Varios - La Historia del Bolero
DYEAR=2007
DGENRE=Ballad
TTITLE0=Blanca Rosa Gil - Hambre
TTITLE1=Trio Venezuela - Soñando Quimeras
TTITLE2=Lino Borges - La Vida es un Sueño
TTITLE3=Héctor Cabrera - Herido de Sombra
TTITLE4=Felipe Pirela - Esta Noche Corazón
TTITLE5=Bertha Dupuy - Que Podré Hacer
TTITLE6=Estelita del Llano - Angustia
TTITLE7=Roberto Ledezma - Camino del Puente
TTITLE8=Rudy Hernández - En Cuerpo y Alma
TTITLE9=Rolando La Serie - Que Es Lo Que Pasa
TTITLE10=Olga Guillot - Tan Lejos y Sin Embargo Te Quiero
TTITLE11=Daniel Santos - Del Triunfo
TTITLE12=José Luís Monero - Sin Ti
TTITLE13=Omara Portuondo - Tú No Hagas Caso
TTITLE14=Roberto Cantoral y Los tres Caballeros - Regálame Esta Noche
TTITLE15=Rafa galindo - No Me Abandones
TTITLE16=Orlando Contreras - Sin Egoísmo
TTITLE17=Julio Jaramillo - Azabache
TTITLE18=Johnny Albino - Amor Que Malo Eres
TTITLE19=Mirtha Pérez - Que Bueno Que hayas Vuelto
EXTD=Recopilacion de éxitos de Boleros de todos los tiempos, Manuel Palacios
EXTT0=
EXTT1=
EXTT2=
EXTT3=
EXTT4=
EXTT5=
EXTT6=
EXTT7=
EXTT8=
EXTT9=
EXTT10=
EXTT11=
EXTT12=
EXTT13=
EXTT14=
EXTT15=
EXTT16=
EXTT17=
EXTT18=
EXTT19=
PLAYORDER=
